<svg width="56" height="56" viewBox="0 0 56 62" fill="none" xmlns="http://www.w3.org/2000/svg">
<path d="M15.2 12.7C16.1333 12.7 17.2 12.7833 18.4 12.95C19.6333 13.0833 20.7833 13.35 21.85 13.75C22.9167 14.1167 23.8167 14.6167 24.55 15.25C25.2833 15.85 25.65 16.6 25.65 17.5C25.65 18.0333 25.5 18.4833 25.2 18.85C24.9 19.2167 24.4167 19.4 23.75 19.4C23.25 19.4 22.7333 19.3 22.2 19.1C21.7 18.9 21.1167 18.7 20.45 18.5C19.8167 18.2667 19.0667 18.05 18.2 17.85C17.3667 17.65 16.3833 17.55 15.25 17.55C13.05 17.55 11.4167 17.95 10.35 18.75C9.31667 19.5167 8.8 20.5833 8.8 21.95C8.8 22.8833 9.03333 23.6667 9.5 24.3C9.96667 24.9333 10.5833 25.4833 11.35 25.95C12.15 26.3833 13.0333 26.75 14 27.05C15 27.35 16.0167 27.6333 17.05 27.9C18.2167 28.2 19.3667 28.5667 20.5 29C21.6667 29.4333 22.7 30 23.6 30.7C24.5 31.4 25.2167 32.2833 25.75 33.35C26.3167 34.4167 26.6 35.7667 26.6 37.4C26.6 39.1 26.2833 40.6333 25.65 42C25.0167 43.3333 24.15 44.4833 23.05 45.45C21.95 46.3833 20.6333 47.1167 19.1 47.65C17.5667 48.15 15.9 48.4 14.1 48.4C13.1 48.4 11.9333 48.3 10.6 48.1C9.26667 47.9333 8 47.6333 6.8 47.2C5.6 46.7333 4.58333 46.1333 3.75 45.4C2.91667 44.6333 2.5 43.7 2.5 42.6C2.5 41.9333 2.66667 41.4 3 41C3.36667 40.6 3.9 40.4 4.6 40.4C5.16667 40.4 5.63333 40.5167 6 40.75C6.36667 40.95 6.68333 41.1833 6.95 41.45C7.95 42.3167 9.08333 42.9 10.35 43.2C11.6167 43.5 12.9167 43.65 14.25 43.65C15.0167 43.65 15.8167 43.6 16.65 43.5C17.5167 43.3667 18.3 43.1167 19 42.75C19.7 42.3833 20.2833 41.8667 20.75 41.2C21.2167 40.5 21.45 39.5667 21.45 38.4C21.45 37.3333 21.2333 36.4667 20.8 35.8C20.4 35.1 19.85 34.5167 19.15 34.05C18.45 33.5833 17.6167 33.2 16.65 32.9C15.7167 32.6 14.7 32.3 13.6 32C12.3667 31.6667 11.15 31.3 9.95 30.9C8.75 30.5 7.68333 29.9667 6.75 29.3C5.81667 28.6 5.05 27.7333 4.45 26.7C3.88333 25.6333 3.6 24.2833 3.6 22.65C3.6 21.0167 3.9 19.5833 4.5 18.35C5.1 17.1167 5.91667 16.0833 6.95 15.25C7.98333 14.4167 9.2 13.7833 10.6 13.35C12.0333 12.9167 13.5667 12.7 15.2 12.7Z" fill="#008080"/>
<path fill-rule="evenodd" clip-rule="evenodd" d="M32.3 29.75C33.5 32.8833 34.8667 36.1333 36.4 39.5C36.6 39.9667 36.8833 40.3167 37.25 40.55C37.65 40.75 38.0667 40.85 38.5 40.85C38.9 40.85 39.2833 40.75 39.65 40.55C40.05 40.3167 40.3667 39.9833 40.6 39.55C41.2333 38.2833 41.8833 36.8667 42.55 35.3C43.2167 33.7333 43.8667 32.15 44.5 30.55C45.1333 28.9167 45.7333 27.3 46.3 25.7C46.8667 24.1 47.3667 22.6333 47.8 21.3C48.1 23.3667 48.3833 25.45 48.65 27.55C48.9167 29.6167 49.1833 31.7 49.45 33.8C49.75 35.8667 50.05 37.9167 50.35 39.95C50.6833 41.9833 51.05 43.95 51.45 45.85C51.65 46.7167 52.0167 47.3 52.55 47.6C53.0833 47.8667 53.5333 48 53.9 48C54.4667 48 54.9333 47.85 55.3 47.55C55.6667 47.2167 55.85 46.7833 55.85 46.25C55.85 45.3833 55.75 44.15 55.55 42.55C55.3833 40.9167 55.15 39.1 54.85 37.1C54.55 35.1 54.2167 33 53.85 30.8C53.4833 28.6 53.1 26.5 52.7 24.5C52.3333 22.4667 51.9833 20.6333 51.65 19C51.3167 17.3333 51.0333 16.0333 50.8 15.1C50.6 14.3333 50.3 13.7667 49.9 13.4C49.5 13 48.9167 12.8 48.15 12.8C47.3167 12.8 46.6167 13.2 46.05 14C45.4833 14.7667 44.8833 15.9667 44.25 17.6C43.65 19.2 42.9 21.2333 42 23.7C41.1333 26.1333 39.9833 29.0167 38.55 32.35C37.0833 29.0167 35.8833 26.1167 34.95 23.65C34.05 21.1833 33.2667 19.15 32.6 17.55C31.9667 15.9167 31.3667 14.7167 30.8 13.95C30.2333 13.15 29.55 12.75 28.75 12.75C27.4167 12.75 26.5333 13.5167 26.1 15.05C25.8333 15.95 25.5167 17.2333 25.15 18.9C24.8167 20.5667 24.45 22.4333 24.05 24.5C23.6833 26.5333 23.3167 28.65 22.95 30.85C22.5833 33.05 22.25 35.15 21.95 37.15C21.6833 39.15 21.45 40.95 21.25 42.55C21.0833 44.1167 21 45.2833 21 46.05C21 46.3129 21.0359 46.5544 21.1077 46.7742C21.2626 46.6886 21.421 46.5973 21.5835 46.5C22.2316 46.1222 22.8977 45.6207 23.5864 44.9302C24.0952 44.4466 24.6059 43.8133 25.1245 43C25.2931 42.7055 25.4706 42.3714 25.652 42C25.7247 41.8396 25.7955 41.6729 25.8644 41.5C26.0213 41.09 26.1592 40.6508 26.2791 40.1816L26.6956 38.6324V38.6368C26.9366 37.0525 27.1547 35.4402 27.35 33.8C27.8833 29.6 28.5333 25.4333 29.3 21.3C30.1333 23.7667 31.1333 26.5833 32.3 29.75Z" fill="#005A5A"/>
<path d="M7 41.5C9.03586 42.9876 11.2738 43.7411 15 43.6293C16.3625 43.5736 17.3445 43.4451 18.2119 43.1076C18.845 42.9112 19.5029 42.4708 19.8389 42.1964C20.1149 41.9699 20.315 41.7715 20.3498 41.6999C20.5341 41.4769 20.6978 41.2649 20.8423 41.0605C20.9966 40.7875 21.0994 40.5671 21.1792 40.3235L21.588 39C21.7034 38.6088 21.7745 38.3505 21.8674 38.0956L22.5 34.5C22.5 34.5 22.591 33.1603 22.7784 32.1638C22.9428 30.8809 23.1257 29.6877 23.4492 27.9492C23.4492 27.9492 26.8552 37.7312 26.7058 38.5787C26.5565 39.4263 26.3423 40.19 26.0818 40.875C25.7772 41.7944 25.4169 42.5581 25 43.1903C24.5187 43.9151 24.0236 44.5133 23.5252 45C22.7579 45.7566 21.9568 46.3435 21.1106 46.7721C20.0775 47.3501 18.9746 47.7516 17.7764 48.0104C16.2999 48.3087 14 48.4014 14 48.4014C14 48.4014 11.9322 48.2841 11 48.1591C9.47721 48.0005 7.88425 47.6171 6.35465 47.0265C5.41815 46.6101 4.62651 46.1309 3.96246 45.5831C3.50467 45.2224 3.14419 44.7784 2.87087 44.253C2.50301 43.6345 2.39967 42.7913 2.62237 41.7161C2.72665 41.2717 3.01161 40.9117 3.5 40.6268C3.77001 40.4867 4.13015 40.4135 4.58837 40.4048C5.4256 40.3596 6.24083 40.7322 7 41.5Z" fill="#005A5A"/>
</svg>
